<svg id="Adrenaline_Sparks_Icon" data-name="Adrenaline Sparks Icon" xmlns="http://www.w3.org/2000/svg" width="48" height="48" viewBox="0 0 48 48">
  <rect id="Rectangle_22" data-name="Rectangle 22" width="48" height="48" fill="none"/>
  <rect id="Rectangle_23" data-name="Rectangle 23" width="34" height="4" transform="translate(3 9)" stroke-width="2" stroke="#231f20" stroke-linecap="round" stroke-linejoin="round" stroke-miterlimit="10" fill="#ebebeb"/>
  <path id="Path_38" data-name="Path 38" d="M3,13v8a6.018,6.018,0,0,0,6,6h3a6.016,6.016,0,0,0,5.9-5,3.4,3.4,0,0,0,.1-1V19a2,2,0,0,1,4,0v2a3.4,3.4,0,0,0,.1,1A6.016,6.016,0,0,0,28,27h1a2.946,2.946,0,0,1,3-3,3.011,3.011,0,0,1,2.7,1.7A5.972,5.972,0,0,0,37,21V13Zm26,7a2,2,0,1,1,2-2A2.006,2.006,0,0,1,29,20Z" fill="#fca32b" stroke="#231f20" stroke-linecap="round" stroke-linejoin="round" stroke-miterlimit="10" stroke-width="2"/>
  <path id="Path_39" data-name="Path 39" d="M3,21l8-8h4.8L4.2,24.6" fill="none" stroke="#231f20" stroke-linecap="round" stroke-linejoin="round" stroke-miterlimit="10" stroke-width="2"/>
  <path id="Path_40" data-name="Path 40" d="M35,27a3,3,0,1,1-3-3,3.011,3.011,0,0,1,2.7,1.7A2.768,2.768,0,0,1,35,27Z" fill="none" stroke="#231f20" stroke-linecap="round" stroke-linejoin="round" stroke-miterlimit="10" stroke-width="2"/>
  <path id="Path_41" data-name="Path 41" d="M13,37a4,4,0,1,1-4-4,3.862,3.862,0,0,1,3.6,2.3A3.287,3.287,0,0,1,13,37Z" fill="none" stroke="#231f20" stroke-linecap="round" stroke-linejoin="round" stroke-miterlimit="10" stroke-width="2"/>
  <circle id="Ellipse_4" data-name="Ellipse 4" cx="2" cy="2" r="2" transform="translate(27 16)" stroke-width="2" stroke="#231f20" stroke-linecap="round" stroke-linejoin="round" stroke-miterlimit="10" fill="none"/>
  <path id="Path_42" data-name="Path 42" d="M25,29v1a2.946,2.946,0,0,1-3,3H18a2.946,2.946,0,0,1-3-3V29Z" fill="#ebebeb" stroke="#231f20" stroke-linecap="round" stroke-linejoin="round" stroke-miterlimit="10" stroke-width="2"/>
  <path id="Path_43" data-name="Path 43" d="M45,3V36a8.963,8.963,0,0,1-9,9H27a8.963,8.963,0,0,1-9-9V33h4v2a6.018,6.018,0,0,0,6,6h7a6.018,6.018,0,0,0,6-6V3Z" fill="none" stroke="#231f20" stroke-linecap="round" stroke-linejoin="round" stroke-miterlimit="10" stroke-width="2"/>
</svg>
