<svg id="Group_348" data-name="Group 348" xmlns="http://www.w3.org/2000/svg" width="48" height="48" viewBox="0 0 48 48">
  <rect id="Rectangle_250" data-name="Rectangle 250" width="48" height="48" fill="none"/>
  <path id="Path_1889" data-name="Path 1889" d="M4.87,27.941a1.982,1.982,0,0,1,2.94-.131l4.907,4.9a1,1,0,0,0,.706.292h23.1a2,2,0,0,1,1.415.586l5,5a2.074,2.074,0,0,1,.195,2.778,1.994,1.994,0,0,1-2.948.128l-4.2-4.2A1,1,0,0,0,35.276,37h-23.1a2,2,0,0,1-1.414-.586l-5.7-5.7A2.076,2.076,0,0,1,4.87,27.941Z" fill="#ebebeb" stroke="#231f20" stroke-miterlimit="10" stroke-width="2"/>
  <line id="Line_154" data-name="Line 154" y2="8" transform="translate(8.65 35)" fill="none" stroke="#231f20" stroke-linecap="round" stroke-linejoin="round" stroke-width="2"/>
  <line id="Line_155" data-name="Line 155" y2="6" transform="translate(33.65 37)" fill="none" stroke="#231f20" stroke-linecap="round" stroke-linejoin="round" stroke-width="2"/>
  <g id="Group_347" data-name="Group 347">
    <g id="Group_346" data-name="Group 346">
      <path id="Path_1890" data-name="Path 1890" d="M35.577,6.689S30.792,8.14,27.714,16.6l-.01,0c-1.87-.68-2.554,1.2-4.433.515s-1.2-2.563-3.075-3.247A12,12,0,0,1,35.577,6.689Z" fill="#fca32b" stroke="#231f20" stroke-linecap="round" stroke-linejoin="round" stroke-width="2"/>
      <path id="Path_1891" data-name="Path 1891" d="M35.231,19.333l-.009,0c-1.88-.684-2.564,1.195-4.443.511s-1.2-2.554-3.065-3.244c3.078-8.457,7.863-9.908,7.863-9.908S38.309,10.876,35.231,19.333Z" fill="none" stroke="#231f20" stroke-linecap="round" stroke-linejoin="round" stroke-width="2"/>
      <path id="Path_1892" data-name="Path 1892" d="M42.749,22.069c-1.88-.684-2.564,1.2-4.443.511s-1.208-2.557-3.075-3.247c3.078-8.457.346-12.644.346-12.644A12,12,0,0,1,42.749,22.069Z" fill="#fca32b" stroke="#231f20" stroke-linecap="round" stroke-linejoin="round" stroke-width="2"/>
    </g>
    <line id="Line_156" data-name="Line 156" x1="4.446" y2="12.216" transform="translate(26 20.784)" fill="none" stroke="#231f20" stroke-linecap="round" stroke-linejoin="round" stroke-width="2"/>
  </g>
  <path id="Path_1893" data-name="Path 1893" d="M5,6.3c2,0,4,2.4,4,2.4s2-2.4,4-2.4" fill="none" stroke="#231f20" stroke-linecap="round" stroke-linejoin="round" stroke-width="2"/>
</svg>
