<svg id="Camping_Retreats_Icon" data-name="Camping Retreats Icon" xmlns="http://www.w3.org/2000/svg" width="48" height="48" viewBox="0 0 48 48">
  <rect id="Rectangle_24" data-name="Rectangle 24" width="48" height="48" fill="none"/>
  <path id="Path_44" data-name="Path 44" d="M24,14V35.9H11.3Z" fill="none" stroke="#231f20" stroke-linecap="round" stroke-linejoin="round" stroke-miterlimit="10" stroke-width="2"/>
  <path id="Path_45" data-name="Path 45" d="M24,35.9V41H8.4l2.9-5.1Z" fill="#fca32b" stroke="#231f20" stroke-linecap="round" stroke-linejoin="round" stroke-miterlimit="10" stroke-width="2"/>
  <path id="Path_46" data-name="Path 46" d="M36.3,35.3l-10.6-5L24,27V14Z" fill="none" stroke="#231f20" stroke-linecap="round" stroke-linejoin="round" stroke-miterlimit="10" stroke-width="2"/>
  <path id="Path_47" data-name="Path 47" d="M39.4,40.7,28,35l-2.3-4.7,10.6,5Z" fill="#fca32b" stroke="#231f20" stroke-linecap="round" stroke-linejoin="round" stroke-miterlimit="10" stroke-width="2"/>
  <path id="Path_48" data-name="Path 48" d="M39.6,41H44" fill="none" stroke="#231f20" stroke-linecap="round" stroke-linejoin="round" stroke-miterlimit="10" stroke-width="2"/>
  <line id="Line_4" data-name="Line 4" x1="4.4" transform="translate(4 41)" fill="none" stroke="#231f20" stroke-linecap="round" stroke-linejoin="round" stroke-miterlimit="10" stroke-width="2"/>
  <path id="Path_49" data-name="Path 49" d="M39.6,41H24V27l1.4,2.9L28,35l11.4,5.7Z" fill="#ebebeb" stroke="#231f20" stroke-linecap="round" stroke-linejoin="round" stroke-miterlimit="10" stroke-width="2"/>
  <path id="Path_50" data-name="Path 50" d="M17,9.5V10H4V9.5A4.481,4.481,0,0,1,8.5,5a4.13,4.13,0,0,1,3.3,1.5A3.371,3.371,0,0,1,13.5,6,3.543,3.543,0,0,1,17,9.5Z" fill="none" stroke="#231f20" stroke-linecap="round" stroke-linejoin="round" stroke-miterlimit="10" stroke-width="2"/>
  <path id="Path_51" data-name="Path 51" d="M45,12.5V13H33v-.5A2.476,2.476,0,0,1,35.5,10a2.016,2.016,0,0,1,1.1.3A4.42,4.42,0,0,1,40.5,8,4.481,4.481,0,0,1,45,12.5Z" fill="none" stroke="#231f20" stroke-linecap="round" stroke-linejoin="round" stroke-miterlimit="10" stroke-width="2"/>
</svg>
