<svg id="Group_351" data-name="Group 351" xmlns="http://www.w3.org/2000/svg" width="48" height="48" viewBox="0 0 48 48">
  <rect id="Rectangle_253" data-name="Rectangle 253" width="48" height="48" fill="none"/>
  <path id="Path_1910" data-name="Path 1910" d="M36.2,33.89a6.06,6.06,0,0,0,1.2.11c3.33,0,3.33-2,6.67-2" fill="none" stroke="#231f20" stroke-linecap="round" stroke-linejoin="round" stroke-width="2"/>
  <path id="Path_1911" data-name="Path 1911" d="M6.517,32.51A5.427,5.427,0,0,0,4.067,32" fill="none" stroke="#231f20" stroke-linecap="round" stroke-linejoin="round" stroke-width="2"/>
  <path id="Path_1912" data-name="Path 1912" d="M4.067,37C7.4,37,7.4,39,10.731,39s3.332-2,6.664-2,3.331,2,6.662,2,3.333-2,6.667-2,3.336,2,6.672,2,3.335-2,6.671-2" fill="none" stroke="#231f20" stroke-linecap="round" stroke-linejoin="round" stroke-width="2"/>
  <path id="Path_1913" data-name="Path 1913" d="M44.067,21c-1.83,9.14-7,12.1-7.87,12.89C34,33.49,33.6,32,30.727,32c-3.34,0-3.34,2-6.67,2s-3.33-2-6.66-2-3.33,2-6.67,2c-2.23,0-2.97-.9-4.21-1.49C3.067,26,4.067,24,4.067,24H28.4l3.98-3Z" fill="#ebebeb" stroke="#231f20" stroke-linecap="round" stroke-linejoin="round" stroke-width="2"/>
  <path id="Path_1914" data-name="Path 1914" d="M37.2,21h-4.82L28.4,24H6.517l1.55-3h17l-2-3h-14l2-5h14.34l2.66,5h7.21Z" fill="#fca32b" stroke="#231f20" stroke-linecap="round" stroke-linejoin="round" stroke-width="2"/>
  <path id="Path_1915" data-name="Path 1915" d="M35.277,18h-7.21l-2.66-5h6.66Z" fill="none" stroke="#231f20" stroke-linecap="round" stroke-linejoin="round" stroke-width="2"/>
  <path id="Path_1916" data-name="Path 1916" d="M25.067,21h-14.8l1.23-3h11.57Z" fill="none" stroke="#231f20" stroke-linecap="round" stroke-linejoin="round" stroke-width="2"/>
  <path id="Path_1917" data-name="Path 1917" d="M18.547,13h-4.33l-2.15-4h3Z" fill="none" stroke="#231f20" stroke-linecap="round" stroke-linejoin="round" stroke-width="2"/>
  <g id="Ellipse_76" data-name="Ellipse 76" transform="translate(36.067 23)" fill="#fca32b" stroke="#231f20" stroke-linecap="round" stroke-linejoin="round" stroke-width="2">
    <circle cx="1" cy="1" r="1" stroke="none"/>
    <circle cx="1" cy="1" fill="none"/>
  </g>
  <g id="Ellipse_77" data-name="Ellipse 77" transform="translate(39.067 23)" fill="#fca32b" stroke="#231f20" stroke-linecap="round" stroke-linejoin="round" stroke-width="2">
    <circle cx="1" cy="1" r="1" stroke="none"/>
    <circle cx="1" cy="1" fill="none"/>
  </g>
  <g id="Ellipse_78" data-name="Ellipse 78" transform="translate(33.067 23)" fill="#fca32b" stroke="#231f20" stroke-linecap="round" stroke-linejoin="round" stroke-width="2">
    <circle cx="1" cy="1" r="1" stroke="none"/>
    <circle cx="1" cy="1" fill="none"/>
  </g>
</svg>
