<svg xmlns="http://www.w3.org/2000/svg" width="48" height="48" viewBox="0 0 48 48">
  <g id="Flash_Deals_Icon" data-name="Flash Deals Icon" transform="translate(0 0)">
    <rect id="Rectangle_42" data-name="Rectangle 42" width="48" height="48" fill="none"/>
    <path id="Path_1698" data-name="Path 1698" d="M7,39l6-14H7L11,9H22L16,19h6a2.865,2.865,0,0,0,1,2.2Z" fill="#fca32b" stroke="#231f20" stroke-linecap="round" stroke-linejoin="round" stroke-miterlimit="10" stroke-width="2"/>
    <path id="Path_1699" data-name="Path 1699" d="M15,16" fill="none" stroke="#231f20" stroke-linecap="round" stroke-linejoin="round" stroke-miterlimit="10" stroke-width="2"/>
    <path id="Path_1700" data-name="Path 1700" d="M28,38H24L35,16h4Z" fill="none" stroke="#231f20" stroke-linecap="round" stroke-linejoin="round" stroke-miterlimit="10" stroke-width="2"/>
    <path id="Path_1701" data-name="Path 1701" d="M28,19a2.946,2.946,0,0,1-3,3,2.792,2.792,0,0,1-2-.8A2.865,2.865,0,0,1,22,19a3,3,0,0,1,6,0Z" fill="#ebebeb" stroke="#231f20" stroke-linecap="round" stroke-linejoin="round" stroke-miterlimit="10" stroke-width="2"/>
    <circle id="Ellipse_19" data-name="Ellipse 19" cx="3" cy="3" r="3" transform="translate(35 32)" stroke-width="2" stroke="#231f20" stroke-linecap="round" stroke-linejoin="round" stroke-miterlimit="10" fill="#ebebeb"/>
  </g>
</svg>
