<svg id="Group_349" data-name="Group 349" xmlns="http://www.w3.org/2000/svg" width="48" height="48" viewBox="0 0 48 48">
  <rect id="Rectangle_251" data-name="Rectangle 251" width="48" height="48" fill="none"/>
  <path id="Path_1894" data-name="Path 1894" d="M30.53,23.31,28,25l-2-2-4,4-3.14-6.1L24,12l6.47,11.21Z" fill="none" stroke="#231f20" stroke-linecap="round" stroke-linejoin="round" stroke-width="2"/>
  <path id="Path_1895" data-name="Path 1895" d="M41.32,42H6.68l3.75-6.5,6.73-11.66,1.7-2.94L22,27l4-4,2,2,2.53-1.69,5.31,9.19Z" fill="#ebebeb" stroke="#231f20" stroke-linecap="round" stroke-linejoin="round" stroke-width="2"/>
  <path id="Path_1896" data-name="Path 1896" d="M17.16,23.84l-.87,1.5L13,26l-2.52-3.27L13.5,17.5Z" fill="none" stroke="#231f20" stroke-linecap="round" stroke-linejoin="round" stroke-width="2"/>
  <path id="Path_1897" data-name="Path 1897" d="M16.29,25.34,10.43,35.5H3.11l7.37-12.77L13,26Z" fill="#fca32b" stroke="#231f20" stroke-linecap="round" stroke-linejoin="round" stroke-width="2"/>
  <path id="Path_1898" data-name="Path 1898" d="M39.19,20.9,36,23l-3.97-2.49L35.5,14.5Z" fill="none" stroke="#231f20" stroke-linecap="round" stroke-linejoin="round" stroke-width="2"/>
  <path id="Path_1899" data-name="Path 1899" d="M45.89,32.5H35.84l-5.37-9.29,1.56-2.7L36,23l3.19-2.1Z" fill="#fca32b" stroke="#231f20" stroke-linecap="round" stroke-linejoin="round" stroke-width="2"/>
  <path id="Path_1900" data-name="Path 1900" d="M24.427,24.573A5.14,5.14,0,0,1,26,28c0,5-11,1-11,7,0,3,3,3,7,3s10,1,10.03,4.08" fill="none" stroke="#231f20" stroke-linejoin="round" stroke-width="2"/>
  <path id="Path_1901" data-name="Path 1901" d="M17,11.5a2.737,2.737,0,0,1-.04.5H4.03A4.07,4.07,0,0,1,4,11.5,4.494,4.494,0,0,1,8.5,7a4.432,4.432,0,0,1,3.3,1.45A3.4,3.4,0,0,1,13.5,8,3.5,3.5,0,0,1,17,11.5Z" fill="none" stroke="#231f20" stroke-linecap="round" stroke-linejoin="round" stroke-width="2"/>
  <path id="Path_1902" data-name="Path 1902" d="M43,8.5a4.07,4.07,0,0,1-.03.5H31.05A2.734,2.734,0,0,1,31,8.5,2.5,2.5,0,0,1,33.5,6a2.409,2.409,0,0,1,1.1.26A4.5,4.5,0,0,1,43,8.5Z" fill="none" stroke="#231f20" stroke-linecap="round" stroke-linejoin="round" stroke-width="2"/>
</svg>
