<svg id="Group_350" data-name="Group 350" xmlns="http://www.w3.org/2000/svg" width="48" height="48" viewBox="0 0 48 48">
  <rect id="Rectangle_252" data-name="Rectangle 252" width="48" height="48" fill="none"/>
  <path id="Path_1903" data-name="Path 1903" d="M37.83,25H36a1,1,0,0,1-1-1V23a1,1,0,0,0-1-1H32a1,1,0,0,0-1,1v4a2.006,2.006,0,0,0,2,2h1.57L33,41H28V35a4.029,4.029,0,0,0-4-4,4.012,4.012,0,0,0-4,4v6H15L13.43,29H15a2.006,2.006,0,0,0,2-2V23a1,1,0,0,0-1-1H14a1,1,0,0,0-1,1v1a1,1,0,0,1-1,1H10.17l1.35-10H36.48Z" fill="none" stroke="#231f20" stroke-miterlimit="10" stroke-width="2"/>
  <line id="Line_157" data-name="Line 157" x2="42" transform="translate(3 41)" fill="none" stroke="#231f20" stroke-linecap="round" stroke-linejoin="round" stroke-width="2"/>
  <path id="Path_1904" data-name="Path 1904" d="M41,8v5a2.006,2.006,0,0,1-2,2H9a2.006,2.006,0,0,1-2-2V8A1,1,0,0,1,8,7h2a1,1,0,0,1,1,1V9a1,1,0,0,0,1,1h4a1,1,0,0,0,1-1V8a1,1,0,0,1,1-1h2a1,1,0,0,1,1,1V9a1,1,0,0,0,1,1h4a1,1,0,0,0,1-1V8a1,1,0,0,1,1-1h2a1,1,0,0,1,1,1V9a1,1,0,0,0,1,1h4a1,1,0,0,0,1-1V8a1,1,0,0,1,1-1h2A1,1,0,0,1,41,8Z" fill="#fca32b" stroke="#231f20" stroke-linecap="round" stroke-linejoin="round" stroke-width="2"/>
  <path id="Path_1905" data-name="Path 1905" d="M28,35v6H20V35a4.012,4.012,0,0,1,4-4,4.029,4.029,0,0,1,4,4Z" fill="#ebebeb" stroke="#231f20" stroke-linecap="round" stroke-linejoin="round" stroke-width="2"/>
  <path id="Path_1906" data-name="Path 1906" d="M15,41H5L6.57,29h6.86Z" fill="#ebebeb" stroke="#231f20" stroke-linecap="round" stroke-linejoin="round" stroke-width="2"/>
  <path id="Path_1907" data-name="Path 1907" d="M17,23v4a2.006,2.006,0,0,1-2,2H5a2.006,2.006,0,0,1-2-2V23a1,1,0,0,1,1-1H6a1,1,0,0,1,1,1v1a1,1,0,0,0,1,1h4a1,1,0,0,0,1-1V23a1,1,0,0,1,1-1h2A1,1,0,0,1,17,23Z" fill="#fca32b" stroke="#231f20" stroke-linecap="round" stroke-linejoin="round" stroke-width="2"/>
  <path id="Path_1908" data-name="Path 1908" d="M43,41H33l1.57-12h6.86Z" fill="#ebebeb" stroke="#231f20" stroke-linecap="round" stroke-linejoin="round" stroke-width="2"/>
  <path id="Path_1909" data-name="Path 1909" d="M45,23v4a2.006,2.006,0,0,1-2,2H33a2.006,2.006,0,0,1-2-2V23a1,1,0,0,1,1-1h2a1,1,0,0,1,1,1v1a1,1,0,0,0,1,1h4a1,1,0,0,0,1-1V23a1,1,0,0,1,1-1h2A1,1,0,0,1,45,23Z" fill="#fca32b" stroke="#231f20" stroke-linecap="round" stroke-linejoin="round" stroke-width="2"/>
</svg>
