<svg id="Group_352" data-name="Group 352" xmlns="http://www.w3.org/2000/svg" width="48" height="48" viewBox="0 0 48 48">
  <path id="Path_1918" data-name="Path 1918" d="M28,24H20a46.381,46.381,0,0,1,.37-6h7.26A46.381,46.381,0,0,1,28,24Z" fill="none" stroke="#231f20" stroke-linecap="round" stroke-linejoin="round" stroke-width="2"/>
  <path id="Path_1919" data-name="Path 1919" d="M24,41a16.95,16.95,0,0,1-12.04-5h4.89A15.49,15.49,0,0,0,24,41Z" fill="none" stroke="#231f20" stroke-linecap="round" stroke-linejoin="round" stroke-width="2"/>
  <path id="Path_1920" data-name="Path 1920" d="M36.04,36A16.95,16.95,0,0,1,24,41a15.49,15.49,0,0,0,7.15-5Z" fill="#ebebeb" stroke="#231f20" stroke-linecap="round" stroke-linejoin="round" stroke-width="2"/>
  <path id="Path_1921" data-name="Path 1921" d="M39.91,30a16.846,16.846,0,0,1-3.87,6H31.15a16.51,16.51,0,0,0,3.07-6Z" fill="none" stroke="#231f20" stroke-linecap="round" stroke-linejoin="round" stroke-width="2"/>
  <path id="Path_1922" data-name="Path 1922" d="M34.22,30a16.51,16.51,0,0,1-3.07,6H26.34a33.7,33.7,0,0,0,1.29-6Z" fill="#fca32b" stroke="#231f20" stroke-linecap="round" stroke-linejoin="round" stroke-width="2"/>
  <path id="Path_1923" data-name="Path 1923" d="M16.85,36H11.96a16.846,16.846,0,0,1-3.87-6h5.69A16.51,16.51,0,0,0,16.85,36Z" fill="#fca32b" stroke="#231f20" stroke-linecap="round" stroke-linejoin="round" stroke-width="2"/>
  <path id="Path_1924" data-name="Path 1924" d="M13.78,30H8.09A16.854,16.854,0,0,1,7,24h6A21.942,21.942,0,0,0,13.78,30Z" fill="none" stroke="#231f20" stroke-linecap="round" stroke-linejoin="round" stroke-width="2"/>
  <path id="Path_1925" data-name="Path 1925" d="M41,24a16.854,16.854,0,0,1-1.09,6H34.22A21.942,21.942,0,0,0,35,24Z" fill="#fca32b" stroke="#231f20" stroke-linecap="round" stroke-linejoin="round" stroke-width="2"/>
  <path id="Path_1926" data-name="Path 1926" d="M41,24H35a21.942,21.942,0,0,0-.78-6h5.69A16.854,16.854,0,0,1,41,24Z" fill="none" stroke="#231f20" stroke-linecap="round" stroke-linejoin="round" stroke-width="2"/>
  <path id="Path_1927" data-name="Path 1927" d="M35,24H28a46.381,46.381,0,0,0-.37-6h6.59A21.942,21.942,0,0,1,35,24Z" fill="none" stroke="#231f20" stroke-linecap="round" stroke-linejoin="round" stroke-width="2"/>
  <path id="Path_1928" data-name="Path 1928" d="M13.78,18A21.942,21.942,0,0,0,13,24H7a16.854,16.854,0,0,1,1.09-6Z" fill="#fca32b" stroke="#231f20" stroke-linecap="round" stroke-linejoin="round" stroke-width="2"/>
  <path id="Path_1929" data-name="Path 1929" d="M16.85,12a16.51,16.51,0,0,0-3.07,6H8.09a16.846,16.846,0,0,1,3.87-6Z" fill="none" stroke="#231f20" stroke-linecap="round" stroke-linejoin="round" stroke-width="2"/>
  <path id="Path_1930" data-name="Path 1930" d="M39.91,18H34.22a16.51,16.51,0,0,0-3.07-6h4.89A16.846,16.846,0,0,1,39.91,18Z" fill="#ebebeb" stroke="#231f20" stroke-linecap="round" stroke-linejoin="round" stroke-width="2"/>
  <path id="Path_1931" data-name="Path 1931" d="M36.04,12H31.15a15.37,15.37,0,0,0-7.14-4.99L24,7A16.95,16.95,0,0,1,36.04,12Z" fill="none" stroke="#231f20" stroke-linecap="round" stroke-linejoin="round" stroke-width="2"/>
  <path id="Path_1932" data-name="Path 1932" d="M31.15,12H26.34a17.133,17.133,0,0,0-2.33-4.99A15.37,15.37,0,0,1,31.15,12Z" fill="#ebebeb" stroke="#231f20" stroke-linecap="round" stroke-linejoin="round" stroke-width="2"/>
  <path id="Path_1933" data-name="Path 1933" d="M26.34,12H21.66a17.133,17.133,0,0,1,2.33-4.99L24,7l.01.01A17.133,17.133,0,0,1,26.34,12Z" fill="#fca32b" stroke="#231f20" stroke-linecap="round" stroke-linejoin="round" stroke-width="2"/>
  <path id="Path_1934" data-name="Path 1934" d="M24,7l-.01.01A15.37,15.37,0,0,0,16.85,12H11.96A16.95,16.95,0,0,1,24,7Z" fill="#fca32b" stroke="#231f20" stroke-linecap="round" stroke-linejoin="round" stroke-width="2"/>
  <path id="Path_1935" data-name="Path 1935" d="M26.34,36A16.75,16.75,0,0,1,24,41a16.75,16.75,0,0,1-2.34-5Z" fill="none" stroke="#231f20" stroke-linecap="round" stroke-linejoin="round" stroke-width="2"/>
  <path id="Path_1936" data-name="Path 1936" d="M31.15,36A15.49,15.49,0,0,1,24,41a16.75,16.75,0,0,0,2.34-5Z" fill="#ebebeb" stroke="#231f20" stroke-linecap="round" stroke-linejoin="round" stroke-width="2"/>
  <path id="Path_1937" data-name="Path 1937" d="M28,24a46.381,46.381,0,0,1-.37,6H20.37A46.381,46.381,0,0,1,20,24Z" fill="#fca32b" stroke="#231f20" stroke-linecap="round" stroke-linejoin="round" stroke-width="2"/>
  <path id="Path_1938" data-name="Path 1938" d="M35,24a21.942,21.942,0,0,1-.78,6H27.63A46.381,46.381,0,0,0,28,24Z" fill="#ebebeb" stroke="#231f20" stroke-linecap="round" stroke-linejoin="round" stroke-width="2"/>
  <path id="Path_1939" data-name="Path 1939" d="M27.63,18H20.37a33.7,33.7,0,0,1,1.29-6h4.68A33.7,33.7,0,0,1,27.63,18Z" fill="none" stroke="#231f20" stroke-linecap="round" stroke-linejoin="round" stroke-width="2"/>
  <path id="Path_1940" data-name="Path 1940" d="M34.22,18H27.63a33.7,33.7,0,0,0-1.29-6h4.81A16.51,16.51,0,0,1,34.22,18Z" fill="#fca32b" stroke="#231f20" stroke-linecap="round" stroke-linejoin="round" stroke-width="2"/>
  <path id="Path_1941" data-name="Path 1941" d="M27.63,30a33.7,33.7,0,0,1-1.29,6H21.66a33.7,33.7,0,0,1-1.29-6Z" fill="#ebebeb" stroke="#231f20" stroke-linecap="round" stroke-linejoin="round" stroke-width="2"/>
  <path id="Path_1942" data-name="Path 1942" d="M21.66,36H16.85a16.51,16.51,0,0,1-3.07-6h6.59A33.7,33.7,0,0,0,21.66,36Z" fill="none" stroke="#231f20" stroke-linecap="round" stroke-linejoin="round" stroke-width="2"/>
  <path id="Path_1943" data-name="Path 1943" d="M20.37,18A46.381,46.381,0,0,0,20,24H13a21.942,21.942,0,0,1,.78-6Z" fill="none" stroke="#231f20" stroke-linecap="round" stroke-linejoin="round" stroke-width="2"/>
  <path id="Path_1944" data-name="Path 1944" d="M23.99,7.01A17.133,17.133,0,0,0,21.66,12H16.85A15.37,15.37,0,0,1,23.99,7.01Z" fill="none" stroke="#231f20" stroke-linecap="round" stroke-linejoin="round" stroke-width="2"/>
  <path id="Path_1945" data-name="Path 1945" d="M20.37,30H13.78A21.942,21.942,0,0,1,13,24h7A46.381,46.381,0,0,0,20.37,30Z" fill="#ebebeb" stroke="#231f20" stroke-linecap="round" stroke-linejoin="round" stroke-width="2"/>
  <path id="Path_1946" data-name="Path 1946" d="M24,41a15.49,15.49,0,0,1-7.15-5h4.81A16.75,16.75,0,0,0,24,41Z" fill="#fca32b" stroke="#231f20" stroke-linecap="round" stroke-linejoin="round" stroke-width="2"/>
  <path id="Path_1947" data-name="Path 1947" d="M21.66,12a33.7,33.7,0,0,0-1.29,6H13.78a16.51,16.51,0,0,1,3.07-6Z" fill="#ebebeb" stroke="#231f20" stroke-linecap="round" stroke-linejoin="round" stroke-width="2"/>
  <path id="Path_1948" data-name="Path 1948" d="M4,0A4,4,0,0,0,8,4,4,4,0,0,0,4,8,4,4,0,0,0,0,4,4,4,0,0,0,4,0Z" transform="translate(37 37)" fill="none" stroke="#231f20" stroke-linecap="round" stroke-linejoin="round" stroke-width="2"/>
  <path id="Path_1949" data-name="Path 1949" d="M4,0A4,4,0,0,0,8,4,4,4,0,0,0,4,8,4,4,0,0,0,0,4,4,4,0,0,0,4,0Z" transform="translate(3 3)" fill="none" stroke="#231f20" stroke-linecap="round" stroke-linejoin="round" stroke-width="2"/>
  <rect id="Rectangle_254" data-name="Rectangle 254" width="48" height="48" fill="none"/>
</svg>
