<svg id="Group_353" data-name="Group 353" xmlns="http://www.w3.org/2000/svg" width="48" height="48" viewBox="0 0 48 48">
  <path id="Path_1950" data-name="Path 1950" d="M36.041,24c-.03.28-.06.57-.11.86A8.948,8.948,0,0,1,34.481,28a35.223,35.223,0,0,1-3.2,4,91.527,91.527,0,0,1-7.2,7,91.527,91.527,0,0,1-7.2-7,35.223,35.223,0,0,1-3.2-4,8.948,8.948,0,0,1-1.45-3.14c-.05-.29-.08-.58-.11-.86a7.65,7.65,0,0,1,.6-4,5.286,5.286,0,0,1,5.04-3,6.4,6.4,0,0,1,5.42,3,8.164,8.164,0,0,1,.9,1.71,8.164,8.164,0,0,1,.9-1.71,6.4,6.4,0,0,1,5.42-3,5.286,5.286,0,0,1,5.04,3A7.651,7.651,0,0,1,36.041,24Z" fill="#fca32b" stroke="#231f20" stroke-linecap="round" stroke-linejoin="round" stroke-width="2"/>
  <path id="Path_1951" data-name="Path 1951" d="M12.121,24H4.631A1.026,1.026,0,0,1,4,23.78a5.677,5.677,0,0,1-1.87-2.47A1,1,0,0,1,3.081,20h9.64A7.65,7.65,0,0,0,12.121,24Z" fill="#ebebeb" stroke="#231f20" stroke-linecap="round" stroke-linejoin="round" stroke-width="2"/>
  <path id="Path_1952" data-name="Path 1952" d="M45.861,21.32A5.728,5.728,0,0,1,44,23.78a1.026,1.026,0,0,1-.63.22h-7.33a7.651,7.651,0,0,0-.6-4h9.48A.987.987,0,0,1,45.861,21.32Z" fill="#ebebeb" stroke="#231f20" stroke-linecap="round" stroke-linejoin="round" stroke-width="2"/>
  <path id="Path_1953" data-name="Path 1953" d="M13.681,28H7.631A1.026,1.026,0,0,1,7,27.78a5.677,5.677,0,0,1-1.87-2.47A1,1,0,0,1,6.081,24h6.04c.03.28.06.57.11.86A8.948,8.948,0,0,0,13.681,28Z" fill="#ebebeb" stroke="#231f20" stroke-linecap="round" stroke-linejoin="round" stroke-width="2"/>
  <path id="Path_1954" data-name="Path 1954" d="M42.861,25.32A5.728,5.728,0,0,1,41,27.78a1.026,1.026,0,0,1-.63.22h-5.89a8.948,8.948,0,0,0,1.45-3.14c.05-.29.08-.58.11-.86h5.88A.987.987,0,0,1,42.861,25.32Z" fill="#ebebeb" stroke="#231f20" stroke-linecap="round" stroke-linejoin="round" stroke-width="2"/>
  <path id="Path_1955" data-name="Path 1955" d="M16.881,32h-6.25a1.026,1.026,0,0,1-.63-.22,5.677,5.677,0,0,1-1.87-2.47A1,1,0,0,1,9.081,28h4.6A35.223,35.223,0,0,0,16.881,32Z" fill="#ebebeb" stroke="#231f20" stroke-linecap="round" stroke-linejoin="round" stroke-width="2"/>
  <path id="Path_1956" data-name="Path 1956" d="M39.861,29.32A5.728,5.728,0,0,1,38,31.78a1.026,1.026,0,0,1-.63.22h-6.09a35.223,35.223,0,0,0,3.2-4h4.44A.987.987,0,0,1,39.861,29.32Z" fill="#ebebeb" stroke="#231f20" stroke-linecap="round" stroke-linejoin="round" stroke-width="2"/>
  <ellipse id="Ellipse_79" data-name="Ellipse 79" cx="11" cy="2" rx="11" ry="2" transform="translate(13.081 9)" fill="none" stroke="#231f20" stroke-linecap="round" stroke-linejoin="round" stroke-width="2"/>
  <rect id="Rectangle_255" data-name="Rectangle 255" width="48" height="48" fill="none"/>
  <path id="Path_1957" data-name="Path 1957" d="M4,0A4,4,0,0,0,8,4,4,4,0,0,0,4,8,4,4,0,0,0,0,4,4,4,0,0,0,4,0Z" transform="translate(32 37)" fill="none" stroke="#231f20" stroke-linecap="round" stroke-linejoin="round" stroke-width="2"/>
  <path id="Path_1958" data-name="Path 1958" d="M4,0A4,4,0,0,0,8,4,4,4,0,0,0,4,8,4,4,0,0,0,0,4,4,4,0,0,0,4,0Z" transform="translate(2 2)" fill="none" stroke="#231f20" stroke-linecap="round" stroke-linejoin="round" stroke-width="2"/>
</svg>
