<svg id="spa-cations" xmlns="http://www.w3.org/2000/svg" width="48" height="48" viewBox="0 0 48 48">
  <g id="Layer_17" data-name="Layer 17">
    <rect id="Rectangle_249" data-name="Rectangle 249" width="48" height="48" fill="none"/>
    <path id="Path_1877" data-name="Path 1877" d="M41.18,33.53A18.67,18.67,0,0,1,24,40,18.65,18.65,0,0,0,37.93,28a19,19,0,0,0,.16-12.43,17,17,0,0,1,6.48-.12A18.66,18.66,0,0,1,41.18,33.53Z" fill="none" stroke="#231f20" stroke-linecap="round" stroke-linejoin="round" stroke-width="2"/>
    <path id="Path_1878" data-name="Path 1878" d="M38.09,15.61A19,19,0,0,0,32,18a18.89,18.89,0,0,0-3.13-5.75,17.24,17.24,0,0,1,6.06-2.32,17.37,17.37,0,0,1,3.16,5.68Z" fill="#fca32b" stroke="#231f20" stroke-linecap="round" stroke-linejoin="round" stroke-width="2"/>
    <path id="Path_1879" data-name="Path 1879" d="M37.93,28A18.65,18.65,0,0,1,24,40a18.66,18.66,0,0,0,9-16,18.82,18.82,0,0,0-1-6,19,19,0,0,1,6.08-2.39A19,19,0,0,1,37.93,28Z" fill="#ebebeb" stroke="#231f20" stroke-linecap="round" stroke-linejoin="round" stroke-width="2"/>
    <path id="Path_1880" data-name="Path 1880" d="M24,40A18.72,18.72,0,0,1,3.43,15.49a17,17,0,0,1,6.48.12A19,19,0,0,0,10.07,28,18.65,18.65,0,0,0,24,40Z" fill="none" stroke="#231f20" stroke-linecap="round" stroke-linejoin="round" stroke-width="2"/>
    <path id="Path_1881" data-name="Path 1881" d="M24,40A18.65,18.65,0,0,1,10.07,28a19,19,0,0,1-.16-12.43A19,19,0,0,1,16,18a18.71,18.71,0,0,0,8,22Z" fill="#ebebeb" stroke="#231f20" stroke-linecap="round" stroke-linejoin="round" stroke-width="2"/>
    <path id="Path_1882" data-name="Path 1882" d="M19.12,12.25A18.89,18.89,0,0,0,16,18a19,19,0,0,0-6.08-2.39,17.37,17.37,0,0,1,3.15-5.68,17.24,17.24,0,0,1,6.05,2.32Z" fill="#fca32b" stroke="#231f20" stroke-linecap="round" stroke-linejoin="round" stroke-width="2"/>
    <path id="Path_1883" data-name="Path 1883" d="M24,40a18.63,18.63,0,0,1-3.12-17.7,1.33,1.33,0,0,1,.14-.41,18.72,18.72,0,0,1,3-5.29,18.72,18.72,0,0,1,3,5.29c.05.14.1.27.14.41A18.63,18.63,0,0,1,24,40Z" fill="#fca32b" stroke="#231f20" stroke-linecap="round" stroke-linejoin="round" stroke-width="2"/>
    <path id="Path_1884" data-name="Path 1884" d="M24,40a18.71,18.71,0,0,1-8-22,18.93,18.93,0,0,1,4.62,4c.09.11.19.22.27.34A18.63,18.63,0,0,0,24,40Z" fill="none" stroke="#231f20" stroke-linecap="round" stroke-linejoin="round" stroke-width="2"/>
    <path id="Path_1885" data-name="Path 1885" d="M24,16.6a18.72,18.72,0,0,0-3,5.29c-.05.14-.1.27-.14.41-.08-.12-.18-.23-.27-.34A18.93,18.93,0,0,0,16,18a18.89,18.89,0,0,1,3.13-5.75A19.06,19.06,0,0,1,24,16.6Z" fill="#ebebeb" stroke="#231f20" stroke-linecap="round" stroke-linejoin="round" stroke-width="2"/>
    <path id="Path_1886" data-name="Path 1886" d="M28.88,12.25A19.06,19.06,0,0,0,24,16.6a19.06,19.06,0,0,0-4.88-4.35A17.23,17.23,0,0,1,24,8a17.23,17.23,0,0,1,4.88,4.25Z" fill="#fca32b" stroke="#231f20" stroke-linecap="round" stroke-linejoin="round" stroke-width="2"/>
    <path id="Path_1887" data-name="Path 1887" d="M32,18a18.93,18.93,0,0,0-4.62,4c-.09.11-.19.22-.27.34a1.33,1.33,0,0,0-.14-.41,18.72,18.72,0,0,0-3-5.29,19.06,19.06,0,0,1,4.88-4.35A18.89,18.89,0,0,1,32,18Z" fill="#ebebeb" stroke="#231f20" stroke-linecap="round" stroke-linejoin="round" stroke-width="2"/>
    <path id="Path_1888" data-name="Path 1888" d="M33,24a18.66,18.66,0,0,1-9,16,18.63,18.63,0,0,0,3.12-17.7c.08-.12.18-.23.27-.34A18.93,18.93,0,0,1,32,18,18.82,18.82,0,0,1,33,24Z" fill="none" stroke="#231f20" stroke-linecap="round" stroke-linejoin="round" stroke-width="2"/>
  </g>
</svg>
