<svg id="Weekend_Getaways_Icon" data-name="Weekend Getaways Icon" xmlns="http://www.w3.org/2000/svg" width="48" height="48" viewBox="0 0 48 48">
  <rect id="Rectangle_18" data-name="Rectangle 18" width="48" height="48" fill="none"/>
  <rect id="Rectangle_13" data-name="Rectangle 13" width="6" height="14" rx="3" transform="translate(30 5)" stroke-width="2" stroke="#000" stroke-linecap="round" stroke-linejoin="round" fill="none"/>
  <rect id="Rectangle_14" data-name="Rectangle 14" width="6" height="14" rx="3" transform="translate(12 5)" stroke-width="2" stroke="#000" stroke-linecap="round" stroke-linejoin="round" fill="none"/>
  <rect id="Rectangle_11" data-name="Rectangle 11" width="38" height="27" rx="2" transform="translate(3 16)" fill="#fca32b" stroke="#000" stroke-linejoin="round" stroke-width="2"/>
  <rect id="Rectangle_12" data-name="Rectangle 12" width="38" height="27" rx="2" transform="translate(7 12)" fill="#fff" stroke="#000" stroke-linejoin="round" stroke-width="2"/>
  <rect id="Rectangle_16" data-name="Rectangle 16" width="5" height="15" transform="translate(11 19)" fill="#fca32b"/>
  <rect id="Rectangle_21" data-name="Rectangle 21" width="20" height="15" transform="translate(16 19)" fill="#ebebeb"/>
  <rect id="Rectangle_17" data-name="Rectangle 17" width="5" height="15" transform="translate(36 19)" fill="#fca32b"/>
  <rect id="Rectangle_15" data-name="Rectangle 15" width="30" height="15" rx="1" transform="translate(11 19)" fill="none" stroke="#000" stroke-linejoin="round" stroke-width="2"/>
  <circle id="Ellipse_2" data-name="Ellipse 2" cx="2" cy="2" r="2" transform="translate(16 10)" fill="#fca32b" stroke="#000" stroke-width="2"/>
  <circle id="Ellipse_3" data-name="Ellipse 3" cx="2" cy="2" r="2" transform="translate(34 10)" fill="#fca32b" stroke="#000" stroke-linecap="round" stroke-width="2"/>
  <path id="Path_10" data-name="Path 10" d="M291,615v15" transform="translate(-275 -596)" fill="none" stroke="#000" stroke-linecap="round" stroke-width="2"/>
  <path id="Path_11" data-name="Path 11" d="M291,615v15" transform="translate(-270 -596)" fill="none" stroke="#000" stroke-linecap="round" stroke-width="2"/>
  <path id="Path_12" data-name="Path 12" d="M291,615v15" transform="translate(-265 -596)" fill="none" stroke="#000" stroke-linecap="round" stroke-width="2"/>
  <path id="Path_13" data-name="Path 13" d="M291,615v15" transform="translate(-260 -596)" fill="none" stroke="#000" stroke-linecap="round" stroke-width="2"/>
  <path id="Path_14" data-name="Path 14" d="M291,615v15" transform="translate(-255 -596)" fill="none" stroke="#000" stroke-linecap="round" stroke-width="2"/>
  <path id="Path_15" data-name="Path 15" d="M286,619h30" transform="translate(-275 -595)" fill="none" stroke="#000" stroke-width="2"/>
  <path id="Path_16" data-name="Path 16" d="M286,619h30" transform="translate(-275 -590)" fill="none" stroke="#000" stroke-width="2"/>
</svg>
